<svg width="29" height="28" viewBox="0 0 29 28" fill="none" xmlns="http://www.w3.org/2000/svg">
<path d="M14.3284 25.375C7.73678 25.375 2.37012 20.0083 2.37012 13.4167C2.37012 6.82501 7.73678 1.45834 14.3284 1.45834C20.9201 1.45834 26.2868 6.82501 26.2868 13.4167C26.2868 20.0083 20.9201 25.375 14.3284 25.375ZM14.3284 3.20834C8.69345 3.20834 4.12012 7.79334 4.12012 13.4167C4.12012 19.04 8.69345 23.625 14.3284 23.625C19.9634 23.625 24.5368 19.04 24.5368 13.4167C24.5368 7.79334 19.9634 3.20834 14.3284 3.20834Z" fill="black"/>
<path d="M26.5784 26.5417C26.3567 26.5417 26.135 26.46 25.96 26.285L23.6267 23.9517C23.2884 23.6133 23.2884 23.0533 23.6267 22.715C23.965 22.3767 24.525 22.3767 24.8634 22.715L27.1967 25.0483C27.535 25.3867 27.535 25.9467 27.1967 26.285C27.0217 26.46 26.8 26.5417 26.5784 26.5417Z" fill="black"/>
</svg>
